<?xml version="1.0" encoding="UTF-8"?>
<svg id="Layer_2" data-name="Layer 2" xmlns="http://www.w3.org/2000/svg" viewBox="0 0 122.58 46.98">
  <g id="Layer_1-2" data-name="Layer 1">
    <path d="M51.73,36.13c0,2.3.03,4.44-.01,6.59-.01.82-.08,1.66-.3,2.45-.45,1.63-1.43,2.17-2.99,1.6-1.86-.69-3.72-1.42-5.49-2.31-6.81-3.41-13.56-6.94-20.39-10.32-6.18-3.06-12.45-5.96-18.66-8.95-.99-.48-1.99-.98-2.91-1.58-1.27-.83-1.3-1.64-.12-2.61.63-.52,1.32-1.02,2.06-1.38C16.24,13.04,29.84,7.1,43.89,2.22c2.24-.78,4.54-1.36,6.82-2.02.37-.11.76-.19,1.14-.2.98-.03,1.5.34,1.56,1.31.07,1.1.02,2.21-.07,3.3-.12,1.43-.36,2.84-.52,4.26-.21,1.82.1,2.18,1.89,2.24,1.27.04,2.54.02,3.81.06,4.47.13,8.94.21,13.41.43,5.62.27,36.66.63,42.27,1.02,1.7.12,3.4.4,5.08.67.64.1,1.28.35,1.88.61.88.38,1.38,1.1,1.4,2.07.02,1.1.02,2.21-.06,3.31-.3,4.29-.63,8.58-.95,12.87-.1,1.32-.18,2.64-.33,3.96-.15,1.41-.94,2.19-2.33,2.38-.44.06-.88.09-1.32.06-4.35-.31-34.11-.63-38.45-.95-1.81-.14-3.63-.31-5.44-.43-5.78-.36-11.56-.71-17.34-1.06-.99-.06-1.98-.17-2.97-.18-.53,0-1.06.14-1.64.22ZM4.26,21.75c.85.45,1.3.73,1.79.94,9.93,4.32,19.5,9.36,29.14,14.25,3.64,1.84,7.28,3.7,10.94,5.51.71.35,1.49.54,2.54.9,0-.92,0-1.51,0-2.1-.02-1.88-.06-3.75-.07-5.63,0-1.97.81-2.86,2.81-2.83,4.36.07,8.72.23,13.08.36.22,0,.44.07.66.09,3.19.28,6.37.56,9.56.85,3.19.29,6.37.6,9.56.86,2.42.2,30.26.37,32.68.51,1.24.07,1.4-.12,1.51-1.39.04-.44.03-.88.06-1.32.19-2.86.37-5.72.57-8.58.14-2.09.33-4.18.43-6.27.06-1.29-.11-1.46-1.31-1.64-1.64-.24-3.27-.51-4.92-.62-5.56-.37-36.53-.72-42.1-.99-4.13-.2-8.27-.25-12.41-.4-1.98-.07-3.97-.17-5.95-.35-2.08-.19-2.85-.99-2.85-3.1,0-1.87.19-3.74.28-5.61.03-.51,0-1.03,0-1.88-15.82,5.14-30.67,11.82-46,18.44Z"/>
  </g>
</svg>