<svg width="35" height="42" viewBox="0 0 35 42" fill="none" xmlns="http://www.w3.org/2000/svg">
<path d="M18.6973 8.21471C18.3869 8.57835 18.0749 8.9405 17.7528 9.29498C17.5844 9.48479 17.4129 9.67356 17.2578 9.87398C16.4311 10.9445 15.6167 12.0256 14.764 13.0763C14.236 13.7206 13.7012 14.3595 13.1598 14.993L12.3449 15.9406L11.5194 16.8791C11.3474 17.0646 11.1608 17.2361 10.9614 17.3919C10.8826 17.4593 10.7889 17.5071 10.688 17.5312C10.5872 17.5553 10.482 17.555 10.3812 17.5305C10.1006 17.4686 9.99077 17.1858 10.1631 16.89C10.2799 16.7004 10.4199 16.5261 10.5799 16.3713C10.9377 16.0115 11.2787 15.638 11.603 15.2506C11.9287 14.8644 12.2386 14.4649 12.5326 14.0522C12.695 13.8245 12.8515 13.5771 13.0541 13.3936C13.7006 12.8066 14.2078 12.094 14.8011 11.4594C15.2418 10.9874 15.6474 10.4816 16.0742 9.99601L17.2149 8.6959C17.5925 8.26044 17.9815 7.83394 18.3607 7.39936C18.5132 7.23426 18.6765 7.07938 18.8493 6.93572C19.0162 6.80393 19.1902 6.68149 19.3706 6.56897C19.5299 6.46907 19.6194 6.55497 19.5388 6.75425C19.4225 7.03989 19.2865 7.31707 19.1316 7.58376C19.0681 7.69335 18.998 7.79977 18.9235 7.90321C18.8449 8.00339 18.766 8.10394 18.6875 8.20387L18.6973 8.21471Z" fill="black" stroke="black" stroke-width="1.52392"/>
<path d="M26.5873 19.5919L26.022 19.8257L25.4503 20.046C25.2483 20.1244 25.0453 20.2032 24.851 20.2984C24.5914 20.4248 24.3333 20.5544 24.0758 20.685L23.3014 21.0722L21.7549 21.8496L19.8484 22.8021L17.9469 23.7651C17.7516 23.8573 17.55 23.9355 17.3435 23.9988C17.2599 24.0283 17.1706 24.0378 17.0827 24.0266C16.9948 24.0155 16.9107 23.9839 16.8372 23.9345C16.6314 23.8024 16.6294 23.5458 16.858 23.3587C17.0091 23.2402 17.1749 23.1418 17.3513 23.0657C18.145 22.7043 18.9151 22.2931 19.657 21.8346C19.8551 21.695 20.0684 21.5784 20.2929 21.487C21.0052 21.2435 21.6534 20.859 22.3465 20.5749C22.8614 20.3643 23.3621 20.1166 23.8768 19.9032C24.796 19.5263 25.7182 19.1586 26.6536 18.8246C27.0074 18.694 27.3803 18.6228 27.7573 18.6139C27.9205 18.6097 27.9591 18.7293 27.8161 18.8441C27.6099 19.0069 27.3932 19.1561 27.1675 19.2906C26.9789 19.3983 26.7841 19.4948 26.584 19.5794L26.5873 19.5919Z" fill="black" stroke="black" stroke-width="1.52392"/>
<path d="M26.7391 32.6208C26.3921 32.5537 26.0453 32.485 25.6985 32.4147C25.5161 32.3695 25.3311 32.3352 25.1446 32.3119C24.6467 32.2607 24.1475 32.2205 23.6486 32.1804C23.1498 32.1397 22.6517 32.0958 22.1547 32.0439C21.5425 31.9813 20.9313 31.9123 20.3198 31.8447L18.4866 31.6318C18.2999 31.6027 18.1175 31.5509 17.9433 31.4776C17.7733 31.4133 17.6763 31.242 17.6269 31.0257C17.5549 30.7106 17.6906 30.3955 17.9484 30.344C18.1138 30.3164 18.2831 30.3234 18.4456 30.3646C19.1863 30.525 19.9432 30.5977 20.7008 30.5811C20.911 30.5772 21.132 30.5565 21.3277 30.6251C21.9527 30.8412 22.6086 30.8447 23.243 30.9893C23.7144 31.095 24.1945 31.1562 24.6679 31.253C25.0899 31.3392 25.5112 31.4287 25.9317 31.5214L27.1882 31.8256C27.5164 31.9032 27.8213 32.058 28.0776 32.2772C28.1048 32.2977 28.1253 32.326 28.1363 32.3582C28.1474 32.3905 28.1486 32.4254 28.1397 32.4583C28.1308 32.4912 28.1123 32.5208 28.0865 32.5431C28.0607 32.5655 28.0288 32.5796 27.995 32.5837C27.7666 32.6229 27.5362 32.6486 27.3048 32.6605C27.1165 32.6559 26.9288 32.6374 26.7433 32.6052L26.7391 32.6208Z" fill="black" stroke="black" stroke-width="1.52392"/>
<path d="M18.9734 39.7982C18.8967 39.7423 18.8181 39.6892 18.7448 39.6285L18.5253 39.4455C18.4494 39.3788 18.368 39.3187 18.2821 39.2657C18.0477 39.1325 17.8075 39.0078 17.5759 38.8708C17.3425 38.7363 17.11 38.6005 16.8831 38.4565C16.6034 38.2796 16.3269 38.098 16.0568 37.9073L15.2461 37.3355C15.1655 37.2696 15.0979 37.1892 15.0468 37.0985C14.9915 37.0127 15.0176 36.8684 15.0863 36.7036C15.1864 36.4634 15.3873 36.2722 15.5339 36.296C15.623 36.3138 15.7042 36.3595 15.7657 36.4265C16.055 36.7122 16.3982 36.9376 16.7752 37.0898C16.8802 37.1333 16.9995 37.1641 17.0666 37.2566C17.2833 37.5489 17.607 37.6916 17.863 37.9286C18.0522 38.1061 18.2733 38.2403 18.4673 38.412C18.8145 38.7164 19.1679 39.0116 19.5061 39.3286C19.6481 39.4576 19.7464 39.6275 19.7875 39.8149C19.7922 39.838 19.7917 39.8618 19.7862 39.8847C19.7806 39.9075 19.7701 39.9289 19.7555 39.9473C19.7408 39.9657 19.7223 39.9807 19.7012 39.9912C19.6801 40.0016 19.657 40.0074 19.6335 40.008C19.5681 40.0006 19.5026 39.9907 19.438 39.9785C19.3743 39.9679 19.3116 39.9519 19.2507 39.9306C19.1568 39.8914 19.0667 39.8437 18.9815 39.7881L18.9734 39.7982Z" fill="black" stroke="black" stroke-width="1.52392"/>
<path d="M4.21302 8.46251C4.20846 8.68951 4.20155 8.91605 4.1923 9.14213C4.18442 9.26173 4.18376 9.38169 4.19032 9.50137C4.2215 9.81875 4.24924 10.1371 4.27096 10.4563C4.29135 10.7755 4.29953 11.0952 4.2955 11.4155C4.28634 11.8094 4.26538 12.2033 4.22772 12.5957C4.19022 12.9881 4.14203 13.3793 4.08316 13.7693C4.05935 13.8892 4.01547 14.0042 3.95337 14.1095C3.89866 14.2144 3.7606 14.2649 3.58805 14.2806C3.33671 14.3032 3.08936 14.1948 3.05255 14.0345C3.03387 13.9334 3.04165 13.8292 3.07513 13.732C3.20857 13.288 3.25238 12.8219 3.20401 12.3608C3.19214 12.2326 3.16221 12.0988 3.20413 11.9787C3.33997 11.5935 3.28711 11.1931 3.33657 10.8003C3.35408 10.654 3.36364 10.5068 3.36522 10.3595C3.37 10.2122 3.3702 10.0648 3.37669 9.91737C3.39924 9.39171 3.41719 8.86342 3.41067 8.33396C3.415 8.11119 3.49074 7.89569 3.62673 7.71919C3.68507 7.6297 3.79602 7.62114 3.8979 7.70642L3.98886 7.80046C4.00373 7.81437 4.01572 7.83107 4.02415 7.8496L4.05067 7.90017C4.08511 7.96716 4.11547 8.03618 4.14159 8.10684C4.16202 8.16379 4.17635 8.22276 4.18432 8.28274C4.18954 8.34268 4.19218 8.40301 4.1984 8.46269L4.21302 8.46251Z" fill="black" stroke="black" stroke-width="1.52392"/>
</svg>
